<svg xmlns="http://www.w3.org/2000/svg" version="1.1" xmlns:xlink="http://www.w3.org/1999/xlink" xmlns:svgjs="http://svgjs.dev/svgjs" viewBox="0 0 800 800" preserveAspectRatio="xMidYMid slice"><defs><pattern id="pppixelate-pattern" width="20" height="20" patternUnits="userSpaceOnUse" patternTransform="translate(0 0) scale(6.8) rotate(28)" shape-rendering="crispEdges">
    <rect width="1" height="1" x="1" y="0" fill="#6C8CBF"></rect><rect width="1" height="1" x="2" y="0" fill="#6C8CBF"></rect><rect width="1" height="1" x="3" y="0" fill="#6C8CBF"></rect><rect width="1" height="1" x="4" y="0" fill="#6C8CBF"></rect><rect width="1" height="1" x="5" y="0" fill="#6C8CBF"></rect><rect width="1" height="1" x="8" y="0" fill="#E2D46B"></rect><rect width="1" height="1" x="9" y="0" fill="#E2D46B"></rect><rect width="1" height="1" x="10" y="0" fill="#E2D46B"></rect><rect width="1" height="1" x="11" y="0" fill="#E2D46B"></rect><rect width="1" height="1" x="14" y="0" fill="#97D7C6"></rect><rect width="1" height="1" x="15" y="0" fill="#97D7C6"></rect><rect width="1" height="1" x="16" y="0" fill="#97D7C6"></rect><rect width="1" height="1" x="17" y="0" fill="#97D7C6"></rect><rect width="1" height="1" x="18" y="0" fill="#97D7C6"></rect><rect width="1" height="1" x="1" y="1" fill="#6C8CBF"></rect><rect width="1" height="1" x="6" y="1" fill="#6C8CBF"></rect><rect width="1" height="1" x="12" y="1" fill="#E2D46B"></rect><rect width="1" height="1" x="14" y="1" fill="#97D7C6"></rect><rect width="1" height="1" x="19" y="1" fill="#97D7C6"></rect><rect width="1" height="1" x="1" y="2" fill="#6C8CBF"></rect><rect width="1" height="1" x="6" y="2" fill="#6C8CBF"></rect><rect width="1" height="1" x="12" y="2" fill="#E2D46B"></rect><rect width="1" height="1" x="14" y="2" fill="#97D7C6"></rect><rect width="1" height="1" x="19" y="2" fill="#97D7C6"></rect><rect width="1" height="1" x="1" y="3" fill="#6C8CBF"></rect><rect width="1" height="1" x="6" y="3" fill="#6C8CBF"></rect><rect width="1" height="1" x="12" y="3" fill="#E2D46B"></rect><rect width="1" height="1" x="14" y="3" fill="#97D7C6"></rect><rect width="1" height="1" x="19" y="3" fill="#97D7C6"></rect><rect width="1" height="1" x="1" y="4" fill="#6C8CBF"></rect><rect width="1" height="1" x="6" y="4" fill="#6C8CBF"></rect><rect width="1" height="1" x="12" y="4" fill="#E2D46B"></rect><rect width="1" height="1" x="14" y="4" fill="#97D7C6"></rect><rect width="1" height="1" x="19" y="4" fill="#97D7C6"></rect><rect width="1" height="1" x="1" y="5" fill="#6C8CBF"></rect><rect width="1" height="1" x="2" y="5" fill="#6C8CBF"></rect><rect width="1" height="1" x="3" y="5" fill="#6C8CBF"></rect><rect width="1" height="1" x="4" y="5" fill="#6C8CBF"></rect><rect width="1" height="1" x="5" y="5" fill="#6C8CBF"></rect><rect width="1" height="1" x="8" y="5" fill="#E2D46B"></rect><rect width="1" height="1" x="9" y="5" fill="#E2D46B"></rect><rect width="1" height="1" x="10" y="5" fill="#E2D46B"></rect><rect width="1" height="1" x="11" y="5" fill="#E2D46B"></rect><rect width="1" height="1" x="14" y="5" fill="#97D7C6"></rect><rect width="1" height="1" x="15" y="5" fill="#97D7C6"></rect><rect width="1" height="1" x="16" y="5" fill="#97D7C6"></rect><rect width="1" height="1" x="17" y="5" fill="#97D7C6"></rect><rect width="1" height="1" x="18" y="5" fill="#97D7C6"></rect><rect width="1" height="1" x="1" y="6" fill="#6C8CBF"></rect><rect width="1" height="1" x="7" y="6" fill="#E2D46B"></rect><rect width="1" height="1" x="14" y="6" fill="#97D7C6"></rect><rect width="1" height="1" x="1" y="7" fill="#6C8CBF"></rect><rect width="1" height="1" x="7" y="7" fill="#E2D46B"></rect><rect width="1" height="1" x="14" y="7" fill="#97D7C6"></rect><rect width="1" height="1" x="1" y="8" fill="#6C8CBF"></rect><rect width="1" height="1" x="7" y="8" fill="#E2D46B"></rect><rect width="1" height="1" x="14" y="8" fill="#97D7C6"></rect><rect width="1" height="1" x="1" y="9" fill="#6C8CBF"></rect><rect width="1" height="1" x="8" y="9" fill="#E2D46B"></rect><rect width="1" height="1" x="9" y="9" fill="#E2D46B"></rect><rect width="1" height="1" x="10" y="9" fill="#E2D46B"></rect><rect width="1" height="1" x="11" y="9" fill="#E2D46B"></rect><rect width="1" height="1" x="14" y="9" fill="#97D7C6"></rect>
  </pattern></defs><rect width="100%" height="100%" fill="url(#pppixelate-pattern)"></rect></svg>