<svg id="visual" viewBox="0 0 900 600" width="900" height="600" xmlns="http://www.w3.org/2000/svg" xmlns:xlink="http://www.w3.org/1999/xlink" version="1.1"><path d="M0 370L21.5 373C43 376 86 382 128.8 394C171.7 406 214.3 424 257.2 428.5C300 433 343 424 385.8 422.8C428.7 421.7 471.3 428.3 514.2 430C557 431.7 600 428.3 642.8 426.3C685.7 424.3 728.3 423.7 771.2 427C814 430.3 857 437.7 878.5 441.3L900 445L900 601L878.5 601C857 601 814 601 771.2 601C728.3 601 685.7 601 642.8 601C600 601 557 601 514.2 601C471.3 601 428.7 601 385.8 601C343 601 300 601 257.2 601C214.3 601 171.7 601 128.8 601C86 601 43 601 21.5 601L0 601Z" fill="#6c8cbf"></path><path d="M0 462L21.5 463.8C43 465.7 86 469.3 128.8 464.8C171.7 460.3 214.3 447.7 257.2 443.8C300 440 343 445 385.8 444.8C428.7 444.7 471.3 439.3 514.2 442.2C557 445 600 456 642.8 456.2C685.7 456.3 728.3 445.7 771.2 443.3C814 441 857 447 878.5 450L900 453L900 601L878.5 601C857 601 814 601 771.2 601C728.3 601 685.7 601 642.8 601C600 601 557 601 514.2 601C471.3 601 428.7 601 385.8 601C343 601 300 601 257.2 601C214.3 601 171.7 601 128.8 601C86 601 43 601 21.5 601L0 601Z" fill="#19aacd"></path><path d="M0 445L21.5 445C43 445 86 445 128.8 454.2C171.7 463.3 214.3 481.7 257.2 489.5C300 497.3 343 494.7 385.8 486.5C428.7 478.3 471.3 464.7 514.2 467.3C557 470 600 489 642.8 494C685.7 499 728.3 490 771.2 489.3C814 488.7 857 496.3 878.5 500.2L900 504L900 601L878.5 601C857 601 814 601 771.2 601C728.3 601 685.7 601 642.8 601C600 601 557 601 514.2 601C471.3 601 428.7 601 385.8 601C343 601 300 601 257.2 601C214.3 601 171.7 601 128.8 601C86 601 43 601 21.5 601L0 601Z" fill="#1cc2b5"></path><path d="M0 542L21.5 535.3C43 528.7 86 515.3 128.8 512.5C171.7 509.7 214.3 517.3 257.2 514C300 510.7 343 496.3 385.8 491.5C428.7 486.7 471.3 491.3 514.2 500.7C557 510 600 524 642.8 530.8C685.7 537.7 728.3 537.3 771.2 528C814 518.7 857 500.3 878.5 491.2L900 482L900 601L878.5 601C857 601 814 601 771.2 601C728.3 601 685.7 601 642.8 601C600 601 557 601 514.2 601C471.3 601 428.7 601 385.8 601C343 601 300 601 257.2 601C214.3 601 171.7 601 128.8 601C86 601 43 601 21.5 601L0 601Z" fill="#85d188"></path><path d="M0 540L21.5 542.3C43 544.7 86 549.3 128.8 550C171.7 550.7 214.3 547.3 257.2 542.8C300 538.3 343 532.7 385.8 530.5C428.7 528.3 471.3 529.7 514.2 533C557 536.3 600 541.7 642.8 546.3C685.7 551 728.3 555 771.2 553.8C814 552.7 857 546.3 878.5 543.2L900 540L900 601L878.5 601C857 601 814 601 771.2 601C728.3 601 685.7 601 642.8 601C600 601 557 601 514.2 601C471.3 601 428.7 601 385.8 601C343 601 300 601 257.2 601C214.3 601 171.7 601 128.8 601C86 601 43 601 21.5 601L0 601Z" fill="#e2d46b"></path></svg>